<?xml version="1.0" encoding="UTF-8" standalone="no"?>
<!-- Created with Inkscape (http://www.inkscape.org/) -->

<svg
   width="21"
   height="21"
   viewBox="0 0 5.5562499 5.5562499"
   version="1.1"
   id="svg1"
   sodipodi:docname="seed-ico.svg"
   xml:space="preserve"
   inkscape:version="1.4.2 (1:1.4.2+202505120737+ebf0e940d0)"
   xmlns:inkscape="http://www.inkscape.org/namespaces/inkscape"
   xmlns:sodipodi="http://sodipodi.sourceforge.net/DTD/sodipodi-0.dtd"
   xmlns="http://www.w3.org/2000/svg"
   xmlns:svg="http://www.w3.org/2000/svg"><sodipodi:namedview
     id="namedview1"
     pagecolor="#505050"
     bordercolor="#eeeeee"
     borderopacity="1"
     inkscape:showpageshadow="0"
     inkscape:pageopacity="0"
     inkscape:pagecheckerboard="0"
     inkscape:deskcolor="#505050"
     showguides="false"
     inkscape:zoom="27.479701"
     inkscape:cx="9.789044"
     inkscape:cy="11.553983"
     inkscape:window-width="1920"
     inkscape:window-height="1011"
     inkscape:window-x="0"
     inkscape:window-y="32"
     inkscape:window-maximized="1"
     inkscape:current-layer="svg1" /><defs
     id="defs1" /><path
     id="rect2"
     style="fill:#ffffff;fill-opacity:0.988235;stroke-width:0.725296;stroke-linecap:round;stroke-linejoin:round;paint-order:stroke markers fill"
     d="M 1.173378,0.6945313 C 0.52315419,0.6945313 1e-8,1.2176854 1e-8,1.8679092 v 1.8204317 c 0,0.6502236 0.52315418,1.1733777 1.17337799,1.1733777 h 3.209494 c 0.6502238,0 1.1733779,-0.5231541 1.1733779,-1.1733777 V 1.8679092 c 0,-0.6502238 -0.5231541,-1.1733779 -1.1733779,-1.1733779 z m 0.6307755,1.3544715 c 0.3165953,1.66e-4 0.5969192,0.204586 0.6938529,0.5059769 h 1.9838905 v 0.4462905 l -0.00127,0.3150976 -0.495319,0.00187 6.14e-4,-0.3169653 H 3.4899516 2.4980064 C 2.4010727,3.3026612 2.1207488,3.5070811 1.8041535,3.5072472 1.4012365,3.507547 1.0744279,3.1810421 1.074353,2.778125 1.074428,2.3752081 1.4012366,2.0487031 1.8041535,2.0490028 Z m -0.00474,0.3581177 C 1.5945204,2.40714 1.4284265,2.5732332 1.4284076,2.778125 1.4284263,2.9830173 1.5945197,3.1491105 1.799412,3.1491294 2.004298,3.1491106 2.1703914,2.9830173 2.1704101,2.778125 2.1703912,2.5732327 2.0043,2.4071393 1.7994056,2.4071205 Z"
     sodipodi:nodetypes="ssssssssscccccccccccccccccc" /><g
     id="g4"
     transform="matrix(1.0706666,0,0,1.0706666,-0.41862987,-0.19632075)" /></svg>
