<?xml version="1.0" encoding="UTF-8" standalone="no"?>
<!-- Created with Inkscape (http://www.inkscape.org/) -->

<svg
   width="21"
   height="21"
   viewBox="0 0 5.5562499 5.5562499"
   version="1.1"
   id="svg1"
   sodipodi:docname="send-ico.svg"
   xml:space="preserve"
   inkscape:version="1.4.2 (1:1.4.2+202505120737+ebf0e940d0)"
   xmlns:inkscape="http://www.inkscape.org/namespaces/inkscape"
   xmlns:sodipodi="http://sodipodi.sourceforge.net/DTD/sodipodi-0.dtd"
   xmlns="http://www.w3.org/2000/svg"
   xmlns:svg="http://www.w3.org/2000/svg"><sodipodi:namedview
     id="namedview1"
     pagecolor="#505050"
     bordercolor="#eeeeee"
     borderopacity="1"
     inkscape:showpageshadow="0"
     inkscape:pageopacity="0"
     inkscape:pagecheckerboard="0"
     inkscape:deskcolor="#505050"
     showguides="false"
     inkscape:zoom="22.627417"
     inkscape:cx="6.1429902"
     inkscape:cy="12.175495"
     inkscape:window-width="1920"
     inkscape:window-height="1011"
     inkscape:window-x="0"
     inkscape:window-y="32"
     inkscape:window-maximized="1"
     inkscape:current-layer="svg1" /><defs
     id="defs1" /><path
     id="rect2"
     style="fill:#ffffff;fill-opacity:0.988235;stroke-width:0.725296;stroke-linecap:round;stroke-linejoin:round;paint-order:stroke markers fill"
     d="m -12.443932,2.7980182 c -0.650224,0 -1.173378,0.5231541 -1.173378,1.1733779 v 1.8204317 c 0,0.6502236 0.523154,1.1733777 1.173378,1.1733777 h 3.2094942 c 0.6502238,0 1.1733779,-0.5231541 1.1733779,-1.1733777 V 3.9713961 c 0,-0.6502238 -0.5231541,-1.1733779 -1.1733779,-1.1733779 z m 0.630776,1.3544715 c 0.316595,1.66e-4 0.596919,0.204586 0.693853,0.5059769 h 1.9838901 v 0.4462905 h -1.9838901 c -0.09693,0.301391 -0.377258,0.5058109 -0.693853,0.505977 -0.402917,2.998e-4 -0.729726,-0.3262051 -0.729801,-0.7291222 7.5e-5,-0.4029169 0.326884,-0.7294219 0.729801,-0.7291222 z m -0.0047,0.3581177 c -0.204893,1.95e-5 -0.370987,0.1661127 -0.371006,0.3710045 1.8e-5,0.2048923 0.166112,0.3709855 0.371004,0.3710044 0.204886,-1.88e-5 0.37098,-0.1661121 0.370998,-0.3710044 -1.9e-5,-0.2048923 -0.16611,-0.3709857 -0.371004,-0.3710045 z" /><g
     id="g4"
     transform="matrix(1.0706666,0,0,1.0706666,-0.41862987,-0.19632075)" /><g
     id="path6"
     inkscape:transform-center-x="-0.62376883"
     style="opacity:1"
     transform="matrix(0.73366485,0,0,0.73366485,2.154387,1.5597662)"><path
       style="baseline-shift:baseline;display:inline;overflow:visible;vector-effect:none;fill:#ffffff;stroke-linecap:round;stroke-linejoin:round;enable-background:accumulate;stop-color:#000000;stop-opacity:1"
       d="m -2.1210938,-2.0136719 c -0.2599554,0.1504972 -0.4199901,0.4281389 -0.4199218,0.7285157 v 5.8906249 c 5.224e-4,0.6472126 0.7009311,1.0516282 1.2617187,0.7285157 L 3.8222656,2.3886719 c 0.5603366,-0.3240589 0.5603366,-1.1329724 0,-1.45703127 L -1.2792969,-2.0136719 c -0.2604405,-0.1504185 -0.5813564,-0.1504185 -0.8417969,0 z"
       id="path8"
       sodipodi:nodetypes="cccccccc" /></g></svg>
