<svg width="300" height="300" viewBox="0 0 300 300" fill="none" xmlns="http://www.w3.org/2000/svg">
<path d="M298.418 293.613V239.294C298.418 237.14 297.562 235.086 296.036 233.56L64.9159 2.43875C63.3897 0.912485 61.3354 0.0566406 59.1816 0.0566406H4.86405C2.1824 0.0566406 0 2.23905 0 4.92069V55.3871C0 57.541 0.855845 59.5949 2.3821 61.1212L85.3421 144.081C87.2391 145.979 87.2391 149.06 85.3421 150.957L1.42641 234.872C0.513507 235.785 0 237.026 0 238.31V293.613C0 296.292 2.1824 298.477 4.86405 298.477H95.6263C98.308 298.477 100.49 296.292 100.49 293.613V261.033C100.49 259.749 101.004 258.508 101.917 257.595L146.934 212.577C148.831 210.68 151.912 210.68 153.81 212.577L237.34 296.109C238.866 297.635 240.92 298.491 243.074 298.491H293.54C296.222 298.491 298.404 296.307 298.404 293.627L298.418 293.613Z" fill="#0F0F0F"/>
<path d="M177.344 71.9897H222.804C225.499 71.9897 227.696 74.1864 227.696 76.8823V122.342C227.696 126.707 232.974 128.89 236.055 125.794L298.417 63.3316C299.329 62.4185 299.845 61.1777 299.845 59.8796V5.17677C299.845 2.48088 297.66 0.284212 294.951 0.284212L239.435 0.212891C238.138 0.212891 236.897 0.726397 235.969 1.6393L173.878 63.631C170.797 66.712 172.979 71.9897 177.33 71.9897H177.344Z" fill="#EE7A30"/>
</svg>
